<svg width="40" height="40" viewBox="0 0 40 40" fill="none" xmlns="http://www.w3.org/2000/svg">
<path d="M20 3.75C11.04 3.75 3.75 11.04 3.75 20C3.75 28.96 11.04 36.25 20 36.25C28.96 36.25 36.25 28.96 36.25 20C36.25 11.04 28.96 3.75 20 3.75ZM20 6.25C27.6087 6.25 33.75 12.3913 33.75 20C33.75 27.6087 27.6087 33.75 20 33.75C12.3913 33.75 6.25 27.6087 6.25 20C6.25 12.3913 12.3913 6.25 20 6.25ZM19.1 11.9925L11.9938 19.1L11.0938 20L11.9938 20.9L19.1025 28.0075L20.9 26.25L15.9 21.25H28.75V18.75H15.9L20.9 13.75L19.1 11.9925Z" fill="white"/>
</svg>
