<svg width="157" height="33" viewBox="0 0 157 33" fill="none" xmlns="http://www.w3.org/2000/svg">
<path d="M0 24.64V24.32H0.384C0.704 24.32 1.03467 24.2773 1.376 24.192C1.73867 24.0853 2.03733 23.8827 2.272 23.584C2.528 23.2853 2.656 22.8373 2.656 22.24V9.76C2.656 9.184 2.528 8.75733 2.272 8.48C2.016 8.20267 1.70667 8.02133 1.344 7.936C1.00267 7.85067 0.682667 7.808 0.384 7.808H0V7.488H7.52V10.4H7.584C7.84 9.44 8.20267 8.72533 8.672 8.256C9.14133 7.78667 9.68533 7.47733 10.304 7.328C10.9227 7.15733 11.5413 7.072 12.16 7.072C14.0373 7.072 15.4347 7.56267 16.352 8.544C17.2693 9.52533 17.728 11.0933 17.728 13.248V22.048C17.728 22.7093 17.8027 23.2 17.952 23.52C18.1227 23.84 18.368 24.0533 18.688 24.16C19.008 24.2667 19.4027 24.32 19.872 24.32H19.968V24.64H12.864V12.192C12.864 10.8053 12.6827 9.77067 12.32 9.088C11.9573 8.384 11.3387 8.032 10.464 8.032C9.71733 8.032 9.12 8.288 8.672 8.8C8.24533 9.312 7.94667 10.0267 7.776 10.944C7.60533 11.8613 7.52 12.9173 7.52 14.112V22.24C7.52 22.8373 7.63733 23.2853 7.872 23.584C8.128 23.8827 8.43733 24.0853 8.8 24.192C9.16267 24.2773 9.49333 24.32 9.792 24.32H10.176V24.64H0Z" fill="#25303A"/>
<path d="M21.3438 24.64V24.32H21.7278C22.0478 24.32 22.3784 24.2773 22.7197 24.192C23.0824 24.0853 23.3811 23.8827 23.6157 23.584C23.8717 23.2853 23.9998 22.8373 23.9998 22.24V9.76C23.9998 9.184 23.8717 8.75733 23.6157 8.48C23.3597 8.20267 23.0504 8.02133 22.6877 7.936C22.3464 7.85067 22.0264 7.808 21.7278 7.808H21.3438V7.488H28.8638V22.24C28.8638 22.8373 28.9811 23.2853 29.2157 23.584C29.4718 23.8827 29.7811 24.0853 30.1438 24.192C30.5064 24.2773 30.8371 24.32 31.1357 24.32H31.5198V24.64H21.3438ZM26.2717 4.608C25.6531 4.608 25.1198 4.42667 24.6718 4.064C24.2451 3.68 24.0317 3.09333 24.0317 2.304C24.0317 1.49333 24.2558 0.906666 24.7038 0.544001C25.1518 0.181334 25.6851 0 26.3038 0C26.9011 0 27.4237 0.181334 27.8717 0.544001C28.3197 0.906666 28.5438 1.49333 28.5438 2.304C28.5438 3.09333 28.3197 3.68 27.8717 4.064C27.4237 4.42667 26.8904 4.608 26.2717 4.608Z" fill="#25303A"/>
<path d="M39.8258 24.96C38.3964 24.96 37.2551 24.5867 36.4017 23.84C35.5484 23.0933 35.1217 21.7813 35.1217 19.904V7.808H32.7217V7.488C33.7671 7.488 34.6844 7.38133 35.4738 7.168C36.2631 6.95467 36.9458 6.61333 37.5218 6.144C38.0551 5.71733 38.4924 5.184 38.8338 4.544C39.1964 3.88267 39.4737 3.11467 39.6657 2.24H39.9858V7.488H44.0817V7.808H39.9858V21.344C39.9858 22.3467 40.1777 23.0827 40.5617 23.552C40.9457 24.0213 41.5111 24.256 42.2578 24.256C42.5564 24.256 42.8764 24.224 43.2178 24.16C43.5804 24.096 43.9644 23.9893 44.3698 23.84V24.16C44.0284 24.3093 43.4631 24.48 42.6738 24.672C41.9058 24.864 40.9564 24.96 39.8258 24.96Z" fill="#25303A"/>
<path d="M45.5625 24.64V24.32H45.9465C46.2665 24.32 46.5972 24.2773 46.9385 24.192C47.3012 24.0853 47.5998 23.8827 47.8345 23.584C48.0905 23.2853 48.2185 22.8373 48.2185 22.24V9.76C48.2185 9.184 48.0905 8.75733 47.8345 8.48C47.5785 8.20267 47.2692 8.02133 46.9065 7.936C46.5652 7.85067 46.2452 7.808 45.9465 7.808H45.5625V7.488H53.0825V22.24C53.0825 22.8373 53.1998 23.2853 53.4345 23.584C53.6905 23.8827 53.9998 24.0853 54.3625 24.192C54.7252 24.2773 55.0558 24.32 55.3545 24.32H55.7385V24.64H45.5625ZM50.4905 4.608C49.8718 4.608 49.3385 4.42667 48.8905 4.064C48.4638 3.68 48.2505 3.09333 48.2505 2.304C48.2505 1.49333 48.4745 0.906666 48.9225 0.544001C49.3705 0.181334 49.9038 0 50.5225 0C51.1198 0 51.6425 0.181334 52.0905 0.544001C52.5385 0.906666 52.7625 1.49333 52.7625 2.304C52.7625 3.09333 52.5385 3.68 52.0905 4.064C51.6425 4.42667 51.1092 4.608 50.4905 4.608Z" fill="#25303A"/>
<path d="M63.3405 24.96C61.9538 24.96 60.8018 24.8 59.8845 24.48C58.9885 24.1387 58.3165 23.6907 57.8685 23.136C57.4418 22.56 57.2285 21.92 57.2285 21.216C57.2285 20.512 57.3992 19.9893 57.7405 19.648C58.0818 19.3067 58.4872 19.0827 58.9565 18.976C59.4258 18.848 59.8418 18.784 60.2045 18.784C60.2045 20.2347 60.3218 21.3973 60.5565 22.272C60.8125 23.1253 61.1965 23.7333 61.7085 24.096C62.2418 24.4587 62.9138 24.64 63.7245 24.64C64.7485 24.64 65.5698 24.384 66.1885 23.872C66.8285 23.36 67.1485 22.56 67.1485 21.472C67.1485 20.7467 66.9992 20.1813 66.7005 19.776C66.4018 19.3707 65.9325 19.0187 65.2925 18.72C64.6738 18.4 63.8738 18.0587 62.8925 17.696C61.9325 17.3333 61.0472 16.9387 60.2365 16.512C59.4258 16.0853 58.7752 15.5413 58.2845 14.88C57.7938 14.1973 57.5485 13.312 57.5485 12.224C57.5485 10.496 58.1672 9.216 59.4045 8.384C60.6632 7.53067 62.3485 7.104 64.4605 7.104C65.8045 7.104 66.8818 7.25333 67.6925 7.552C68.5032 7.82933 69.0898 8.20267 69.4525 8.672C69.8365 9.14133 70.0285 9.65333 70.0285 10.208C70.0285 10.8267 69.7725 11.328 69.2605 11.712C68.7698 12.096 67.9378 12.288 66.7645 12.288C66.7645 10.4747 66.5298 9.216 66.0605 8.512C65.5912 7.78667 64.8872 7.424 63.9485 7.424C63.5005 7.424 63.0525 7.50933 62.6045 7.68C62.1565 7.85067 61.7832 8.14933 61.4845 8.576C61.1858 8.98133 61.0365 9.568 61.0365 10.336C61.0365 11.0187 61.1858 11.5627 61.4845 11.968C61.8045 12.3733 62.3058 12.736 62.9885 13.056C63.6712 13.376 64.5885 13.7493 65.7405 14.176C66.7218 14.5387 67.5752 14.944 68.3005 15.392C69.0258 15.8187 69.5912 16.3627 69.9965 17.024C70.4018 17.664 70.6045 18.4853 70.6045 19.488C70.6045 21.1733 69.9858 22.5067 68.7485 23.488C67.5325 24.4693 65.7298 24.96 63.3405 24.96Z" fill="#25303A"/>
<path d="M72.4375 24.64V24.32H72.8215C73.1415 24.32 73.4722 24.2773 73.8135 24.192C74.1762 24.0853 74.4748 23.8827 74.7095 23.584C74.9655 23.2853 75.0935 22.8373 75.0935 22.24V2.592C75.0935 2.016 74.9655 1.58933 74.7095 1.312C74.4535 1.03467 74.1442 0.853333 73.7815 0.768C73.4402 0.682666 73.1202 0.639999 72.8215 0.639999H72.4375V0.32H79.9575V6.752C79.9575 7.15733 79.9575 7.56267 79.9575 7.968C79.9575 8.37333 79.9575 8.77867 79.9575 9.184C79.9575 9.58933 79.9468 10.0053 79.9255 10.432H79.9895C80.2455 9.472 80.6082 8.75733 81.0775 8.288C81.5682 7.79733 82.1228 7.47733 82.7415 7.328C83.3602 7.15733 83.9788 7.072 84.5975 7.072C86.4748 7.072 87.8722 7.56267 88.7895 8.544C89.7068 9.52533 90.1655 11.0933 90.1655 13.248V22.048C90.1655 22.7093 90.2402 23.2 90.3895 23.52C90.5602 23.84 90.8055 24.0533 91.1255 24.16C91.4455 24.2667 91.8402 24.32 92.3095 24.32H92.4055V24.64H85.3015V12.192C85.3015 10.8053 85.1202 9.77067 84.7575 9.088C84.3948 8.384 83.7762 8.032 82.9015 8.032C82.1548 8.032 81.5575 8.288 81.1095 8.8C80.6828 9.312 80.3842 10.0267 80.2135 10.944C80.0428 11.8613 79.9575 12.9173 79.9575 14.112V22.24C79.9575 22.8373 80.0748 23.2853 80.3095 23.584C80.5655 23.8827 80.8748 24.0853 81.2375 24.192C81.6002 24.2773 81.9308 24.32 82.2295 24.32H82.6135V24.64H72.4375Z" fill="#25303A"/>
<path d="M100.585 32.32V32H100.873C101.619 32 102.259 31.7973 102.793 31.392C103.326 31.008 103.731 30.2933 104.009 29.248C104.286 28.224 104.425 26.784 104.425 24.928V10.304C104.425 9.62133 104.361 9.09867 104.233 8.736C104.105 8.37333 103.859 8.128 103.497 8C103.155 7.872 102.665 7.808 102.025 7.808H101.705V7.488H106.473V24.896C106.473 26.7947 106.238 28.288 105.769 29.376C105.321 30.464 104.691 31.2213 103.881 31.648C103.091 32.096 102.163 32.32 101.097 32.32H100.585ZM105.289 4.032C104.99 4.032 104.734 3.92533 104.521 3.712C104.329 3.47733 104.233 3.06133 104.233 2.464C104.233 1.888 104.329 1.49333 104.521 1.28C104.734 1.04533 104.99 0.927999 105.289 0.927999C105.587 0.927999 105.833 1.04533 106.025 1.28C106.238 1.49333 106.345 1.89867 106.345 2.496C106.345 3.072 106.238 3.47733 106.025 3.712C105.833 3.92533 105.587 4.032 105.289 4.032Z" fill="#25303A"/>
<path d="M116.424 24.96C115.4 24.96 114.514 24.7787 113.768 24.416C113.042 24.032 112.477 23.488 112.072 22.784C111.688 22.08 111.496 21.2267 111.496 20.224C111.496 18.56 112.104 17.3333 113.32 16.544C114.536 15.7547 116.381 15.3173 118.856 15.232L121.512 15.136V12.736C121.512 11.6053 121.437 10.656 121.288 9.888C121.138 9.12 120.808 8.544 120.296 8.16C119.784 7.75467 119.016 7.552 117.992 7.552C117.074 7.552 116.37 7.72267 115.88 8.064C115.389 8.384 115.058 8.88533 114.888 9.568C114.717 10.2293 114.632 11.0827 114.632 12.128C114.034 12.128 113.586 12 113.288 11.744C112.989 11.488 112.84 11.1147 112.84 10.624C112.84 9.94133 113.032 9.344 113.416 8.832C113.821 8.32 114.418 7.92533 115.208 7.648C115.997 7.37067 116.946 7.232 118.056 7.232C119.997 7.232 121.394 7.66933 122.248 8.544C123.122 9.39733 123.56 10.72 123.56 12.512V21.888C123.56 22.528 123.613 23.0293 123.72 23.392C123.826 23.7333 124.018 23.9787 124.296 24.128C124.573 24.256 124.978 24.32 125.512 24.32H125.64V24.64H121.672V21.12H121.608C121.394 21.8453 121.053 22.496 120.584 23.072C120.114 23.648 119.528 24.1067 118.824 24.448C118.141 24.7893 117.341 24.96 116.424 24.96ZM116.872 24.512C117.746 24.512 118.536 24.2773 119.24 23.808C119.965 23.3387 120.52 22.7307 120.904 21.984C121.309 21.2373 121.512 20.4693 121.512 19.68V15.456L119.176 15.552C117.789 15.616 116.68 15.84 115.848 16.224C115.037 16.5867 114.45 17.12 114.088 17.824C113.746 18.5067 113.576 19.3813 113.576 20.448C113.576 21.28 113.693 21.9947 113.928 22.592C114.184 23.1893 114.546 23.6587 115.016 24C115.506 24.3413 116.125 24.512 116.872 24.512Z" fill="#25303A"/>
<path d="M128.008 24.64V24.32H128.648C129.373 24.32 129.917 24.256 130.279 24.128C130.642 24 130.887 23.7653 131.016 23.424C131.144 23.0613 131.208 22.5493 131.208 21.888V10.304C131.208 9.62133 131.144 9.09867 131.016 8.736C130.887 8.37333 130.642 8.128 130.279 8C129.938 7.872 129.447 7.808 128.807 7.808H128.488V7.488H133.255V21.824C133.255 22.5067 133.319 23.0293 133.447 23.392C133.576 23.7547 133.831 24 134.215 24.128C134.6 24.256 135.133 24.32 135.816 24.32H136.488V24.64H128.008ZM132.072 4.032C131.773 4.032 131.517 3.92533 131.303 3.712C131.111 3.47733 131.016 3.06133 131.016 2.464C131.016 1.888 131.111 1.49333 131.303 1.28C131.517 1.04533 131.773 0.927999 132.072 0.927999C132.37 0.927999 132.615 1.04533 132.807 1.28C133.021 1.49333 133.128 1.89867 133.128 2.496C133.128 3.072 133.021 3.47733 132.807 3.712C132.615 3.92533 132.37 4.032 132.072 4.032Z" fill="#25303A"/>
<path d="M137.856 24.64V24.32H138.304C139.029 24.32 139.573 24.256 139.936 24.128C140.298 23.9787 140.544 23.712 140.672 23.328C140.8 22.944 140.864 22.3787 140.864 21.632V10.464C140.864 9.71733 140.8 9.16267 140.672 8.8C140.544 8.416 140.309 8.16 139.968 8.032C139.648 7.88267 139.157 7.808 138.496 7.808H138.016V7.488H142.912V10.72H142.976C143.253 9.80267 143.648 9.09867 144.16 8.608C144.693 8.096 145.29 7.744 145.952 7.552C146.613 7.33867 147.274 7.232 147.936 7.232C149.813 7.232 151.189 7.72267 152.064 8.704C152.96 9.68533 153.408 11.232 153.408 13.344V21.632C153.408 22.3787 153.472 22.944 153.6 23.328C153.728 23.712 153.962 23.9787 154.304 24.128C154.666 24.256 155.178 24.32 155.84 24.32H156.16V24.64H151.36V12.48C151.36 11.072 151.072 9.93067 150.496 9.056C149.92 8.16 148.928 7.712 147.52 7.712C146.325 7.712 145.397 7.98933 144.736 8.544C144.074 9.09867 143.605 9.81333 143.328 10.688C143.05 11.5413 142.912 12.4373 142.912 13.376V21.632C142.912 22.3787 142.976 22.944 143.104 23.328C143.232 23.712 143.477 23.9787 143.84 24.128C144.202 24.256 144.736 24.32 145.44 24.32H145.76V24.64H137.856Z" fill="#25303A"/>
</svg>
