<svg width="158" height="35" viewBox="0 0 158 35" fill="none" xmlns="http://www.w3.org/2000/svg">
<path d="M0.544 27V26.68H0.928C1.248 26.68 1.57867 26.6373 1.92 26.552C2.28267 26.4453 2.58133 26.2427 2.816 25.944C3.072 25.6453 3.2 25.1973 3.2 24.6V12.12C3.2 11.544 3.072 11.1173 2.816 10.84C2.56 10.5627 2.25067 10.3813 1.888 10.296C1.54667 10.2107 1.22667 10.168 0.928 10.168H0.544V9.848H8.064V12.76H8.128C8.384 11.8 8.74667 11.0853 9.216 10.616C9.68533 10.1467 10.2293 9.83733 10.848 9.688C11.4667 9.51733 12.0853 9.432 12.704 9.432C14.5813 9.432 15.9787 9.92267 16.896 10.904C17.8133 11.8853 18.272 13.4533 18.272 15.608V24.408C18.272 25.0693 18.3467 25.56 18.496 25.88C18.6667 26.2 18.912 26.4133 19.232 26.52C19.552 26.6267 19.9467 26.68 20.416 26.68H20.512V27H13.408V14.552C13.408 13.1653 13.2267 12.1307 12.864 11.448C12.5013 10.744 11.8827 10.392 11.008 10.392C10.2613 10.392 9.664 10.648 9.216 11.16C8.78933 11.672 8.49067 12.3867 8.32 13.304C8.14933 14.2213 8.064 15.2773 8.064 16.472V24.6C8.064 25.1973 8.18133 25.6453 8.416 25.944C8.672 26.2427 8.98133 26.4453 9.344 26.552C9.70667 26.6373 10.0373 26.68 10.336 26.68H10.72V27H0.544ZM21.8878 27V26.68H22.2718C22.5918 26.68 22.9224 26.6373 23.2638 26.552C23.6264 26.4453 23.9251 26.2427 24.1598 25.944C24.4158 25.6453 24.5438 25.1973 24.5438 24.6V12.12C24.5438 11.544 24.4158 11.1173 24.1598 10.84C23.9038 10.5627 23.5944 10.3813 23.2318 10.296C22.8904 10.2107 22.5704 10.168 22.2718 10.168H21.8878V9.848H29.4078V24.6C29.4078 25.1973 29.5251 25.6453 29.7598 25.944C30.0158 26.2427 30.3251 26.4453 30.6878 26.552C31.0504 26.6373 31.3811 26.68 31.6798 26.68H32.0638V27H21.8878ZM26.8158 6.968C26.1971 6.968 25.6638 6.78667 25.2158 6.424C24.7891 6.04 24.5758 5.45333 24.5758 4.664C24.5758 3.85333 24.7998 3.26667 25.2478 2.904C25.6958 2.54133 26.2291 2.36 26.8478 2.36C27.4451 2.36 27.9678 2.54133 28.4158 2.904C28.8638 3.26667 29.0878 3.85333 29.0878 4.664C29.0878 5.45333 28.8638 6.04 28.4158 6.424C27.9678 6.78667 27.4344 6.968 26.8158 6.968ZM40.3698 27.32C38.9404 27.32 37.7991 26.9467 36.9458 26.2C36.0924 25.4533 35.6658 24.1413 35.6658 22.264V10.168H33.2658V9.848C34.3111 9.848 35.2284 9.74133 36.0178 9.528C36.8071 9.31467 37.4898 8.97333 38.0658 8.504C38.5991 8.07733 39.0364 7.544 39.3778 6.904C39.7404 6.24267 40.0178 5.47467 40.2098 4.6H40.5298V9.848H44.6258V10.168H40.5298V23.704C40.5298 24.7067 40.7218 25.4427 41.1058 25.912C41.4898 26.3813 42.0551 26.616 42.8018 26.616C43.1004 26.616 43.4204 26.584 43.7618 26.52C44.1244 26.456 44.5084 26.3493 44.9138 26.2V26.52C44.5724 26.6693 44.0071 26.84 43.2178 27.032C42.4498 27.224 41.5004 27.32 40.3698 27.32ZM46.1065 27V26.68H46.4905C46.8105 26.68 47.1412 26.6373 47.4825 26.552C47.8452 26.4453 48.1438 26.2427 48.3785 25.944C48.6345 25.6453 48.7625 25.1973 48.7625 24.6V12.12C48.7625 11.544 48.6345 11.1173 48.3785 10.84C48.1225 10.5627 47.8132 10.3813 47.4505 10.296C47.1092 10.2107 46.7892 10.168 46.4905 10.168H46.1065V9.848H53.6265V24.6C53.6265 25.1973 53.7438 25.6453 53.9785 25.944C54.2345 26.2427 54.5438 26.4453 54.9065 26.552C55.2692 26.6373 55.5998 26.68 55.8985 26.68H56.2825V27H46.1065ZM51.0345 6.968C50.4158 6.968 49.8825 6.78667 49.4345 6.424C49.0078 6.04 48.7945 5.45333 48.7945 4.664C48.7945 3.85333 49.0185 3.26667 49.4665 2.904C49.9145 2.54133 50.4478 2.36 51.0665 2.36C51.6638 2.36 52.1865 2.54133 52.6345 2.904C53.0825 3.26667 53.3065 3.85333 53.3065 4.664C53.3065 5.45333 53.0825 6.04 52.6345 6.424C52.1865 6.78667 51.6532 6.968 51.0345 6.968ZM63.8845 27.32C62.4978 27.32 61.3458 27.16 60.4285 26.84C59.5325 26.4987 58.8605 26.0507 58.4125 25.496C57.9858 24.92 57.7725 24.28 57.7725 23.576C57.7725 22.872 57.9432 22.3493 58.2845 22.008C58.6258 21.6667 59.0312 21.4427 59.5005 21.336C59.9698 21.208 60.3858 21.144 60.7485 21.144C60.7485 22.5947 60.8658 23.7573 61.1005 24.632C61.3565 25.4853 61.7405 26.0933 62.2525 26.456C62.7858 26.8187 63.4578 27 64.2685 27C65.2925 27 66.1138 26.744 66.7325 26.232C67.3725 25.72 67.6925 24.92 67.6925 23.832C67.6925 23.1067 67.5432 22.5413 67.2445 22.136C66.9458 21.7307 66.4765 21.3787 65.8365 21.08C65.2178 20.76 64.4178 20.4187 63.4365 20.056C62.4765 19.6933 61.5912 19.2987 60.7805 18.872C59.9698 18.4453 59.3192 17.9013 58.8285 17.24C58.3378 16.5573 58.0925 15.672 58.0925 14.584C58.0925 12.856 58.7112 11.576 59.9485 10.744C61.2072 9.89067 62.8925 9.464 65.0045 9.464C66.3485 9.464 67.4258 9.61333 68.2365 9.912C69.0472 10.1893 69.6338 10.5627 69.9965 11.032C70.3805 11.5013 70.5725 12.0133 70.5725 12.568C70.5725 13.1867 70.3165 13.688 69.8045 14.072C69.3138 14.456 68.4818 14.648 67.3085 14.648C67.3085 12.8347 67.0738 11.576 66.6045 10.872C66.1352 10.1467 65.4312 9.784 64.4925 9.784C64.0445 9.784 63.5965 9.86933 63.1485 10.04C62.7005 10.2107 62.3272 10.5093 62.0285 10.936C61.7298 11.3413 61.5805 11.928 61.5805 12.696C61.5805 13.3787 61.7298 13.9227 62.0285 14.328C62.3485 14.7333 62.8498 15.096 63.5325 15.416C64.2152 15.736 65.1325 16.1093 66.2845 16.536C67.2658 16.8987 68.1192 17.304 68.8445 17.752C69.5698 18.1787 70.1352 18.7227 70.5405 19.384C70.9458 20.024 71.1485 20.8453 71.1485 21.848C71.1485 23.5333 70.5298 24.8667 69.2925 25.848C68.0765 26.8293 66.2738 27.32 63.8845 27.32ZM72.9815 27V26.68H73.3655C73.6855 26.68 74.0162 26.6373 74.3575 26.552C74.7202 26.4453 75.0188 26.2427 75.2535 25.944C75.5095 25.6453 75.6375 25.1973 75.6375 24.6V4.952C75.6375 4.376 75.5095 3.94933 75.2535 3.672C74.9975 3.39467 74.6882 3.21333 74.3255 3.128C73.9842 3.04266 73.6642 3 73.3655 3H72.9815V2.68H80.5015V9.112C80.5015 9.51733 80.5015 9.92267 80.5015 10.328C80.5015 10.7333 80.5015 11.1387 80.5015 11.544C80.5015 11.9493 80.4908 12.3653 80.4695 12.792H80.5335C80.7895 11.832 81.1522 11.1173 81.6215 10.648C82.1122 10.1573 82.6668 9.83733 83.2855 9.688C83.9042 9.51733 84.5228 9.432 85.1415 9.432C87.0188 9.432 88.4162 9.92267 89.3335 10.904C90.2508 11.8853 90.7095 13.4533 90.7095 15.608V24.408C90.7095 25.0693 90.7842 25.56 90.9335 25.88C91.1042 26.2 91.3495 26.4133 91.6695 26.52C91.9895 26.6267 92.3842 26.68 92.8535 26.68H92.9495V27H85.8455V14.552C85.8455 13.1653 85.6642 12.1307 85.3015 11.448C84.9388 10.744 84.3202 10.392 83.4455 10.392C82.6988 10.392 82.1015 10.648 81.6535 11.16C81.2268 11.672 80.9282 12.3867 80.7575 13.304C80.5868 14.2213 80.5015 15.2773 80.5015 16.472V24.6C80.5015 25.1973 80.6188 25.6453 80.8535 25.944C81.1095 26.2427 81.4188 26.4453 81.7815 26.552C82.1442 26.6373 82.4748 26.68 82.7735 26.68H83.1575V27H72.9815ZM101.129 34.68V34.36H101.417C102.163 34.36 102.803 34.1573 103.337 33.752C103.87 33.368 104.275 32.6533 104.553 31.608C104.83 30.584 104.969 29.144 104.969 27.288V12.664C104.969 11.9813 104.905 11.4587 104.777 11.096C104.649 10.7333 104.403 10.488 104.041 10.36C103.699 10.232 103.209 10.168 102.569 10.168H102.249V9.848H107.017V27.256C107.017 29.1547 106.782 30.648 106.313 31.736C105.865 32.824 105.235 33.5813 104.425 34.008C103.635 34.456 102.707 34.68 101.641 34.68H101.129ZM105.833 6.392C105.534 6.392 105.278 6.28533 105.065 6.072C104.873 5.83733 104.777 5.42133 104.777 4.824C104.777 4.248 104.873 3.85333 105.065 3.64C105.278 3.40533 105.534 3.288 105.833 3.288C106.131 3.288 106.377 3.40533 106.569 3.64C106.782 3.85333 106.889 4.25867 106.889 4.856C106.889 5.432 106.782 5.83733 106.569 6.072C106.377 6.28533 106.131 6.392 105.833 6.392ZM116.968 27.32C115.944 27.32 115.058 27.1387 114.312 26.776C113.586 26.392 113.021 25.848 112.616 25.144C112.232 24.44 112.04 23.5867 112.04 22.584C112.04 20.92 112.648 19.6933 113.864 18.904C115.08 18.1147 116.925 17.6773 119.4 17.592L122.056 17.496V15.096C122.056 13.9653 121.981 13.016 121.832 12.248C121.682 11.48 121.352 10.904 120.84 10.52C120.328 10.1147 119.56 9.912 118.536 9.912C117.618 9.912 116.914 10.0827 116.424 10.424C115.933 10.744 115.602 11.2453 115.432 11.928C115.261 12.5893 115.176 13.4427 115.176 14.488C114.578 14.488 114.13 14.36 113.832 14.104C113.533 13.848 113.384 13.4747 113.384 12.984C113.384 12.3013 113.576 11.704 113.96 11.192C114.365 10.68 114.962 10.2853 115.752 10.008C116.541 9.73067 117.49 9.592 118.6 9.592C120.541 9.592 121.938 10.0293 122.792 10.904C123.666 11.7573 124.104 13.08 124.104 14.872V24.248C124.104 24.888 124.157 25.3893 124.264 25.752C124.37 26.0933 124.562 26.3387 124.84 26.488C125.117 26.616 125.522 26.68 126.056 26.68H126.184V27H122.216V23.48H122.152C121.938 24.2053 121.597 24.856 121.128 25.432C120.658 26.008 120.072 26.4667 119.368 26.808C118.685 27.1493 117.885 27.32 116.968 27.32ZM117.416 26.872C118.29 26.872 119.08 26.6373 119.784 26.168C120.509 25.6987 121.064 25.0907 121.448 24.344C121.853 23.5973 122.056 22.8293 122.056 22.04V17.816L119.72 17.912C118.333 17.976 117.224 18.2 116.392 18.584C115.581 18.9467 114.994 19.48 114.632 20.184C114.29 20.8667 114.12 21.7413 114.12 22.808C114.12 23.64 114.237 24.3547 114.472 24.952C114.728 25.5493 115.09 26.0187 115.56 26.36C116.05 26.7013 116.669 26.872 117.416 26.872ZM128.552 27V26.68H129.192C129.917 26.68 130.461 26.616 130.824 26.488C131.186 26.36 131.432 26.1253 131.56 25.784C131.688 25.4213 131.752 24.9093 131.752 24.248V12.664C131.752 11.9813 131.688 11.4587 131.56 11.096C131.432 10.7333 131.186 10.488 130.824 10.36C130.482 10.232 129.992 10.168 129.352 10.168H129.032V9.848H133.8V24.184C133.8 24.8667 133.864 25.3893 133.992 25.752C134.12 26.1147 134.376 26.36 134.76 26.488C135.144 26.616 135.677 26.68 136.36 26.68H137.032V27H128.552ZM132.616 6.392C132.317 6.392 132.061 6.28533 131.848 6.072C131.656 5.83733 131.56 5.42133 131.56 4.824C131.56 4.248 131.656 3.85333 131.848 3.64C132.061 3.40533 132.317 3.288 132.616 3.288C132.914 3.288 133.16 3.40533 133.352 3.64C133.565 3.85333 133.672 4.25867 133.672 4.856C133.672 5.432 133.565 5.83733 133.352 6.072C133.16 6.28533 132.914 6.392 132.616 6.392ZM138.4 27V26.68H138.848C139.573 26.68 140.117 26.616 140.48 26.488C140.842 26.3387 141.088 26.072 141.216 25.688C141.344 25.304 141.408 24.7387 141.408 23.992V12.824C141.408 12.0773 141.344 11.5227 141.216 11.16C141.088 10.776 140.853 10.52 140.512 10.392C140.192 10.2427 139.701 10.168 139.04 10.168H138.56V9.848H143.456V13.08H143.52C143.797 12.1627 144.192 11.4587 144.704 10.968C145.237 10.456 145.834 10.104 146.496 9.912C147.157 9.69867 147.818 9.592 148.48 9.592C150.357 9.592 151.733 10.0827 152.608 11.064C153.504 12.0453 153.952 13.592 153.952 15.704V23.992C153.952 24.7387 154.016 25.304 154.144 25.688C154.272 26.072 154.506 26.3387 154.848 26.488C155.21 26.616 155.722 26.68 156.384 26.68H156.704V27H151.904V14.84C151.904 13.432 151.616 12.2907 151.04 11.416C150.464 10.52 149.472 10.072 148.064 10.072C146.869 10.072 145.941 10.3493 145.28 10.904C144.618 11.4587 144.149 12.1733 143.872 13.048C143.594 13.9013 143.456 14.7973 143.456 15.736V23.992C143.456 24.7387 143.52 25.304 143.648 25.688C143.776 26.072 144.021 26.3387 144.384 26.488C144.746 26.616 145.28 26.68 145.984 26.68H146.304V27H138.4Z" fill="white"/>
</svg>
