<svg width="40" height="40" viewBox="0 0 40 40" fill="none" xmlns="http://www.w3.org/2000/svg">
<path d="M20 3.75C11.04 3.75 3.75 11.04 3.75 20C3.75 28.96 11.04 36.25 20 36.25C28.96 36.25 36.25 28.96 36.25 20C36.25 11.04 28.96 3.75 20 3.75ZM20 6.25C27.6087 6.25 33.75 12.3913 33.75 20C33.75 27.6087 27.6087 33.75 20 33.75C12.3913 33.75 6.25 27.6087 6.25 20C6.25 12.3913 12.3913 6.25 20 6.25ZM20.9 11.9925L19.1 13.75L24.1 18.75H11.25V21.25H24.1L19.1 26.25L20.9 28.0075L28.0075 20.8987L28.9075 19.9987L28.0075 19.0988L20.8987 11.9913L20.9 11.9925Z" fill="white"/>
</svg>
